# File created by Blade
# Date/Time:  Thu Jan 22 18:25:17 2015
#---------------------------------------------------------
:version 1.10
:name HOM
:units
  mass 1.0
  length 1.000000
  angle deg
:documentation
     Acclaim Skeleton File
:root
   axis xyz
   order TX TY TZ RX RY RZ
   position 0.000000 0.000000 0.000000
   orientation 0 0 0
:bonedata
   begin
      id 1
      name RightUpLeg_dum
      direction -1.000000 0.000000 0.000000
      length 4.478084
      axis 0.0 0.0 0.0 xyz
   end
   begin
      id 2
      name LeftUpLeg_dum
      direction 1.000000 0.000000 0.000000
      length 4.478084
      axis 0.0 0.0 0.0 xyz
   end
   begin
      id 3
      name Spine_dum
      direction 0.000000 1.000000 0.000000
      length 6.068208
      axis 0.0 0.0 0.0 xyz
   end
   begin
      id 4
      name RightUpLeg
      direction 0.000000 -1.000000 0.000000
      length 16.405774
      axis 0.0 0.0 0.0 xyz
      dof rx ry rz
   end
   begin
      id 5
      name RightLeg
      direction 0.000000 -1.000000 0.000000
      length 14.644143
      axis 0.0 0.0 0.0 xyz
      dof rx ry rz
   end
   begin
      id 6
      name RightFoot
      direction 0.000000 -0.258819 0.965926
      length 5.806150
      axis 15.0 0.0 0.0 xyz
      dof rx ry rz
   end
   begin
      id 7
      name RightToeBase
      direction 0.000000 0.000000 1.000000
      length 2.952750
      axis 0.0 0.0 0.0 xyz
      dof rx ry rz
   end
   begin
      id 8
      name LeftUpLeg
      direction 0.000000 -1.000000 0.000000
      length 16.405774
      axis 0.0 0.0 0.0 xyz
      dof rx ry rz
   end
   begin
      id 9
      name LeftLeg
      direction 0.000000 -1.000000 0.000000
      length 14.644143
      axis 0.0 0.0 0.0 xyz
      dof rx ry rz
   end
   begin
      id 10
      name LeftFoot
      direction 0.000000 -0.258819 0.965926
      length 5.806150
      axis 15.0 0.0 0.0 xyz
      dof rx ry rz
   end
   begin
      id 11
      name LeftToeBase
      direction 0.000000 0.000000 1.000000
      length 2.952750
      axis 0.0 0.0 0.0 xyz
      dof rx ry rz
   end
   begin
      id 12
      name Spine
      direction 0.000000 1.000000 0.000000
      length 0.000000
      axis 0.0 0.0 0.0 xyz
      dof rx ry rz
   end
   begin
      id 13
      name Spine_dum1
      direction 0.000000 1.000000 0.000000
      length 10.013923
      axis 0.0 0.0 0.0 xyz
   end
   begin
      id 14
      name Spine_dum2
      direction 0.000000 1.000000 0.000000
      length 10.013923
      axis 0.0 0.0 0.0 xyz
   end
   begin
      id 15
      name Spine_dum3
      direction 0.000000 1.000000 0.000000
      length 15.777476
      axis 0.0 0.0 0.0 xyz
   end
   begin
      id 16
      name RightShoulder
      direction -1.000000 0.000000 0.000000
      length 7.190220
      axis 0.0 0.0 90.0 xyz
      dof rx ry rz
   end
   begin
      id 17
      name RightArm
      direction -1.000000 0.000000 0.000000
      length 10.177469
      axis 0.0 0.0 90.0 xyz
      dof rx ry rz
   end
   begin
      id 18
      name RightForeArm
      direction -1.000000 0.000000 0.000000
      length 8.392114
      axis 0.0 0.0 90.0 xyz
      dof ry rz rx
   end
   begin
      id 19
      name RightHand
      direction -1.000000 0.000000 0.000000
      length 0.000000
      axis 0.0 0.0 90.0 xyz
      dof rx ry rz
   end
   begin
      id 20
      name RightHand_dum1
      direction -1.000000 0.000000 0.000000
      length 3.937000
      axis 0.0 0.0 90.0 xyz
   end
   begin
      id 21
      name RightHand_dum2
      direction 0.000000 0.000000 0.000000
      length 0.000000
      axis 0.0 0.0 90.0 xyz
   end
   begin
      id 22
      name RightHandThumb1
      direction 0.000000 0.000000 1.000000
      length 3.937000
      axis 0.0 0.0 90.0 xyz
      dof rx rz ry
   end
   begin
      id 23
      name LeftShoulder
      direction 1.000000 0.000000 0.000000
      length 7.190220
      axis 0.0 0.0 -90.0 xyz
      dof rx ry rz
   end
   begin
      id 24
      name LeftArm
      direction 1.000000 0.000000 0.000000
      length 10.177469
      axis 0.0 0.0 -90.0 xyz
      dof rx ry rz
   end
   begin
      id 25
      name LeftForeArm
      direction 1.000000 0.000000 0.000000
      length 8.392114
      axis 0.0 0.0 -90.0 xyz
      dof ry rz rx
   end
   begin
      id 26
      name LeftHand
      direction 1.000000 0.000000 0.000000
      length 0.000000
      axis 0.0 0.0 -90.0 xyz
      dof rx ry rz
   end
   begin
      id 27
      name LeftHand_dum1
      direction 1.000000 0.000000 0.000000
      length 3.937000
      axis 0.0 0.0 -90.0 xyz
   end
   begin
      id 28
      name LeftHand_dum2
      direction 0.000000 0.000000 0.000000
      length 0.000000
      axis 0.0 0.0 -90.0 xyz
   end
   begin
      id 29
      name LeftHandThumb1
      direction 0.000000 0.000000 1.000000
      length 3.937000
      axis 0.0 0.0 -90.0 xyz
      dof rx rz ry
   end
   begin
      id 30
      name Head
      direction 0.000000 1.000000 0.000000
      length 4.527550
      axis 0.0 0.0 0.0 xyz
      dof rx ry rz
   end
:hierarchy
   begin
      root RightUpLeg_dum LeftUpLeg_dum Spine_dum
      RightUpLeg_dum RightUpLeg
      LeftUpLeg_dum LeftUpLeg
      Spine_dum Spine
      RightUpLeg RightLeg
      RightLeg RightFoot
      RightFoot RightToeBase
      LeftUpLeg LeftLeg
      LeftLeg LeftFoot
      LeftFoot LeftToeBase
      Spine Spine_dum1 Spine_dum2 Spine_dum3
      Spine_dum1 RightShoulder
      Spine_dum2 LeftShoulder
      Spine_dum3 Head
      RightShoulder RightArm
      RightArm RightForeArm
      RightForeArm RightHand
      RightHand RightHand_dum1 RightHand_dum2
      RightHand_dum2 RightHandThumb1
      LeftShoulder LeftArm
      LeftArm LeftForeArm
      LeftForeArm LeftHand
      LeftHand LeftHand_dum1 LeftHand_dum2
      LeftHand_dum2 LeftHandThumb1
   end

# File created by Blade
# Date/Time:  Thu Jan 22 18:25:10 2015
# Frame Rate: 120.000 fps
#------------------------------------------------------
:FULLY-SPECIFIED
:DEGREES
778
root -3.002620 33.235808 0.463263 5.077040 0.754105 2.747254
RightUpLeg 3.392201 -6.506067 -1.922340
RightLeg -0.175144 -0.000000 0.000000
RightFoot -11.641899 -4.857363 3.576166
RightToeBase 5.498504 -0.000000 -0.000000
LeftUpLeg 2.117194 1.811694 1.166477
LeftLeg 1.576983 -0.000000 -0.000000
LeftFoot -10.254751 1.824896 -9.430663
LeftToeBase 8.430212 -0.000000 -0.000000
Spine -9.732631 -0.567082 -1.411130
RightShoulder -29.518726 19.927459 -61.660757
RightArm 126.225625 46.467641 90.517376
RightForeArm 4.307077 0.000000 143.624086
RightHand 10.141941 -0.000000 -6.084467
RightHandThumb1 -24.326973 -0.000000 -32.862282
LeftShoulder -21.247447 -9.653441 52.688527
LeftArm 29.275160 -66.850030 -27.551736
LeftForeArm -60.792910 -0.000000 116.330926
LeftHand -19.159291 -0.000000 4.364236
LeftHandThumb1 -26.253704 0.000000 33.147579
Head 19.858373 -6.674046 -5.221306
779
root -3.004939 33.236227 0.461081 5.077854 0.697557 2.738595
RightUpLeg 3.381445 -6.493766 -1.916456
RightLeg -0.182395 -0.000000 0.000000
RightFoot -11.620910 -4.812596 3.563148
RightToeBase 5.500193 -0.000000 -0.000000
LeftUpLeg 2.114864 1.838917 1.171081
LeftLeg 1.589914 -0.000000 -0.000000
LeftFoot -10.251474 1.842027 -9.490246
LeftToeBase 8.386291 -0.000000 -0.000000
Spine -9.724055 -0.567495 -1.402488
RightShoulder -29.532243 19.954599 -61.677502
RightArm 126.186231 46.446250 90.517287
RightForeArm 4.318285 -0.000000 143.621079
RightHand 10.146257 -0.000000 -6.059976
RightHandThumb1 -24.326973 -0.000000 -32.862282
LeftShoulder -21.249555 -9.670671 52.694197
LeftArm 29.322016 -66.844348 -27.586084
LeftForeArm -60.797374 -0.000000 116.323511
LeftHand -19.191330 -0.000000 4.380044
LeftHandThumb1 -26.253704 0.000000 33.147579
Head 19.847295 -6.669300 -5.203007
780
root -3.006897 33.236896 0.458107 5.079951 0.629146 2.729488
RightUpLeg 3.359640 -6.466912 -1.910994
RightLeg -0.178131 -0.000000 0.000000
RightFoot -11.610936 -4.770656 3.558299
RightToeBase 5.498228 -0.000000 -0.000000
LeftUpLeg 2.115495 1.877106 1.177151
LeftLeg 1.596501 -0.000000 -0.000000
LeftFoot -10.268886 1.878908 -9.457064
LeftToeBase 8.427152 -0.000000 -0.000000
Spine -9.715236 -0.561535 -1.393633
RightShoulder -29.547318 19.991173 -61.694025
RightArm 126.118950 46.443367 90.479494
RightForeArm 4.293826 -0.000000 143.621677
RightHand 10.126405 -0.000000 -6.043283
RightHandThumb1 -24.326973 -0.000000 -32.862282
LeftShoulder -21.249687 -9.709979 52.707762
LeftArm 29.290090 -66.825101 -27.546411
LeftForeArm -60.793809 -0.000000 116.305716
LeftHand -19.188530 -0.000000 4.318299
LeftHandThumb1 -26.253704 0.000000 33.147579
Head 19.845562 -6.670929 -5.190436
781
root -3.006853 33.237368 0.456684 5.081273 0.563541 2.719328
RightUpLeg 3.345194 -6.446627 -1.908988
RightLeg -0.180045 -0.000000 0.000000
RightFoot -11.590672 -4.726448 3.545411
RightToeBase 5.457195 -0.000000 -0.000000
LeftUpLeg 2.121414 1.916186 1.171519
LeftLeg 1.601172 -0.000000 -0.000000
LeftFoot -10.290671 1.924197 -9.537038
LeftToeBase 8.407304 -0.000000 -0.000000
Spine -9.709414 -0.556783 -1.373591
RightShoulder -29.580543 20.021792 -61.722247
RightArm 126.038314 46.404242 90.436652
RightForeArm 4.261664 -0.000000 143.620578
RightHand 10.149434 0.000000 -5.991264
RightHandThumb1 -24.326973 -0.000000 -32.862282
LeftShoulder -21.233838 -9.912102 52.838178
LeftArm 28.835019 -66.645553 -27.206658
LeftForeArm -60.787767 -0.000000 116.349760
LeftHand -19.183827 0.000000 4.316183
LeftHandThumb1 -26.253704 0.000000 33.147579
Head 19.845003 -6.657729 -5.189030
782
root -3.011698 33.237845 0.453270 5.087639 0.489559 2.711175
RightUpLeg 3.317464 -6.402189 -1.897120
RightLeg -0.176275 -0.000000 0.000000
RightFoot -11.587243 -4.701733 3.549471
RightToeBase 5.522278 -0.000000 -0.000000
LeftUpLeg 2.116260 1.958683 1.186038
LeftLeg 1.607129 -0.000000 -0.000000
LeftFoot -10.285014 1.922610 -9.536453
LeftToeBase 8.414632 -0.000000 -0.000000
Spine -9.704019 -0.557673 -1.377089
RightShoulder -29.598015 20.052258 -61.717799
RightArm 125.990337 46.391990 90.401883
RightForeArm 4.248487 -0.000000 143.609809
RightHand 10.163086 -0.000000 -5.960090
RightHandThumb1 -24.326973 -0.000000 -32.862282
LeftShoulder -21.238948 -9.956445 52.881957
LeftArm 28.732052 -66.607523 -27.117642
LeftForeArm -60.778772 -0.000000 116.352955
LeftHand -19.191006 0.000000 4.310542
LeftHandThumb1 -26.253704 0.000000 33.147579
Head 19.843029 -6.647187 -5.161542
783
root -3.011656 33.238826 0.447919 5.101732 0.408897 2.702101
RightUpLeg 3.270951 -6.374652 -1.894735
RightLeg -0.158282 -0.000000 0.000000
RightFoot -11.569973 -4.649527 3.555242
RightToeBase 5.508293 -0.000000 -0.000000
LeftUpLeg 2.098748 1.997476 1.179381
LeftLeg 1.625353 -0.000000 -0.000000
LeftFoot -10.309287 1.981469 -9.586754
LeftToeBase 8.422484 -0.000000 -0.000000
Spine -9.701647 -0.530072 -1.360915
RightShoulder -29.625792 20.054801 -61.732924
RightArm 125.957899 46.387203 90.376237
RightForeArm 4.247578 -0.000000 143.606495
RightHand 10.160180 -0.000000 -5.934022
RightHandThumb1 -24.326973 -0.000000 -32.862282
LeftShoulder -21.246826 -9.986665 52.882115
LeftArm 28.724984 -66.591316 -27.100769
LeftForeArm -60.770932 -0.000000 116.354348
LeftHand -19.241086 -0.000000 4.362068
LeftHandThumb1 -26.253704 0.000000 33.147579
Head 19.827568 -6.638407 -5.158077
784
root -3.010224 33.239807 0.447161 5.104374 0.339815 2.701449
RightUpLeg 3.259557 -6.357518 -1.905887
RightLeg -0.169398 -0.000000 0.000000
RightFoot -11.553845 -4.588403 3.565652
RightToeBase 5.514167 -0.000000 -0.000000
LeftUpLeg 2.104039 2.046425 1.172259
LeftLeg 1.623685 -0.000000 -0.000000
LeftFoot -10.309666 2.017777 -9.475981
LeftToeBase 8.439739 -0.000000 -0.000000
Spine -9.700609 -0.531232 -1.337227
RightShoulder -29.657327 20.119609 -61.788861
RightArm 125.826135 46.357786 90.272164
RightForeArm 4.223376 -0.000000 143.591119
RightHand 10.216080 -0.000000 -5.926180
RightHandThumb1 -24.326973 -0.000000 -32.862282
LeftShoulder -21.191950 -10.099715 52.946439
LeftArm 28.268461 -66.532832 -26.735811
LeftForeArm -60.789378 -0.000000 116.395468
LeftHand -19.171616 -0.000000 4.332206
LeftHandThumb1 -26.253704 0.000000 33.147579
Head 19.824442 -6.613671 -5.184820
785
root -3.012715 33.240205 0.444415 5.101152 0.267488 2.698338
RightUpLeg 3.243577 -6.334108 -1.903739
RightLeg -0.165476 -0.000000 0.000000
RightFoot -11.544772 -4.558332 3.546927
RightToeBase 5.522910 -0.000000 -0.000000
LeftUpLeg 2.112167 2.084796 1.171958
LeftLeg 1.627757 -0.000000 -0.000000
LeftFoot -10.315289 2.050718 -9.487411
LeftToeBase 8.417352 -0.000000 -0.000000
Spine -9.683694 -0.539392 -1.340348
RightShoulder -29.686806 20.162204 -61.803663
RightArm 125.732726 46.346256 90.207134
RightForeArm 4.212235 0.000000 143.601131
RightHand 10.207350 0.000000 -5.919504
RightHandThumb1 -24.326973 -0.000000 -32.862282
LeftShoulder -21.209829 -10.166345 52.992398
LeftArm 28.178243 -66.461858 -26.647747
LeftForeArm -60.790961 -0.000000 116.386855
LeftHand -19.151768 0.000000 4.295247
LeftHandThumb1 -26.253704 0.000000 33.147579
Head 19.813137 -6.606648 -5.153250
786
root -3.013385 33.240769 0.439134 5.129848 0.206491 2.690177
RightUpLeg 3.189424 -6.321101 -1.897791
RightLeg -0.153462 -0.000000 0.000000
RightFoot -11.535899 -4.520269 3.539213
RightToeBase 5.509651 -0.000000 -0.000000
LeftUpLeg 2.075620 2.100961 1.170679
LeftLeg 1.646020 -0.000000 -0.000000
LeftFoot -10.334256 2.100806 -9.483333
LeftToeBase 8.436343 -0.000000 -0.000000
Spine -9.702671 -0.554860 -1.328662
RightShoulder -29.670131 20.223150 -61.841794
RightArm 125.644418 46.434656 90.167117
RightForeArm 4.240609 0.000000 143.612836
RightHand 10.180334 -0.000000 -5.969587
RightHandThumb1 -24.326973 -0.000000 -32.862282
LeftShoulder -21.210906 -9.424062 52.544621
LeftArm 29.459794 -67.176863 -27.553294
LeftForeArm -60.804917 0.000000 116.246843
LeftHand -19.119620 -0.000000 4.303438
LeftHandThumb1 -26.253704 0.000000 33.147579
Head 19.804228 -6.593644 -5.132212
